<?xml version="1.0" encoding="UTF-8"?> <svg xmlns="http://www.w3.org/2000/svg" width="15" height="14" viewBox="0 0 15 14" fill="none"><path d="M6.83799 0.524506C6.9939 0.0446567 7.67276 0.0446566 7.82868 0.524506L9.08735 4.39831C9.15708 4.6129 9.35705 4.75819 9.58269 4.75819H13.6558C14.1604 4.75819 14.3702 5.40383 13.962 5.70039L10.6667 8.09453C10.4842 8.22716 10.4078 8.46224 10.4775 8.67684L11.7362 12.5506C11.8921 13.0305 11.3429 13.4295 10.9347 13.1329L7.63947 10.7388C7.45693 10.6062 7.20974 10.6062 7.0272 10.7388L3.73195 13.1329C3.32376 13.4295 2.77455 13.0305 2.93047 12.5506L4.18914 8.67684C4.25887 8.46224 4.18248 8.22716 3.99994 8.09453L0.704685 5.70039C0.2965 5.40383 0.506279 4.75819 1.01082 4.75819H5.08398C5.30961 4.75819 5.50959 4.6129 5.57932 4.39831L6.83799 0.524506Z" fill="#FB5E2B"></path></svg> 