<svg xmlns="http://www.w3.org/2000/svg" viewBox="0 0 1680 914" fill="none">
  <defs>
    <linearGradient id="sea" x1="840" y1="0" x2="840" y2="914" gradientUnits="userSpaceOnUse">
      <stop offset="0%" stop-color="#dbeeff"/>
      <stop offset="100%" stop-color="#eef7ff"/>
    </linearGradient>
    <filter id="shadow" x="-20%" y="-20%" width="140%" height="140%">
      <feDropShadow dx="0" dy="16" stdDeviation="22" flood-color="#8db8d7" flood-opacity="0.18"/>
    </filter>
  </defs>

  <rect width="1680" height="914" fill="url(#sea)"/>

  <g opacity="0.28" stroke="#ffffff" stroke-width="2">
    <path d="M0 108H1680"/>
    <path d="M0 238H1680"/>
    <path d="M0 368H1680"/>
    <path d="M0 498H1680"/>
    <path d="M0 628H1680"/>
    <path d="M0 758H1680"/>
    <path d="M210 0V914"/>
    <path d="M462 0V914"/>
    <path d="M714 0V914"/>
    <path d="M966 0V914"/>
    <path d="M1218 0V914"/>
    <path d="M1470 0V914"/>
  </g>

  <g filter="url(#shadow)">
    <path
      d="M118 628C141 573 185 527 248 502C305 479 360 433 410 380C468 319 537 279 633 252C705 232 775 224 852 235C920 244 988 271 1051 315C1112 357 1164 383 1219 392C1286 404 1347 439 1390 489C1436 542 1453 604 1440 673C1424 756 1366 814 1275 848C1209 873 1131 881 1044 869C970 859 885 839 792 811C717 788 651 780 594 785C516 791 446 814 376 824C287 837 219 817 173 764C130 713 112 668 118 628Z"
      fill="#f8fbf4"
    />
    <path
      d="M1433 458C1486 435 1542 437 1595 466C1627 483 1643 515 1641 558C1638 602 1618 633 1581 649C1548 664 1516 663 1483 650C1450 637 1422 615 1395 585C1369 555 1364 524 1382 493C1393 474 1410 462 1433 458Z"
      fill="#f8fbf4"
    />
  </g>

  <g fill="#cfe6b3" fill-opacity="0.85">
    <path d="M391 403c61-68 139-108 233-120 79-10 159-3 238 21 65 20 121 52 169 96-48 13-95 19-141 15-53-4-116-1-188 11-88 14-165 34-233 61-43 17-78 29-104 36-22-30-14-70 26-120Z"/>
    <path d="M983 352c45 15 89 40 132 77 39 34 69 72 90 113-70-5-130-22-180-50-55-31-110-47-164-48-38 0-73 4-106 13 30-47 69-79 118-96 39-14 76-17 110-9Z"/>
    <path d="M676 649c54 11 113 30 177 57 63 27 131 44 203 52-66 34-138 49-216 44-72-4-141-21-207-49-42-18-76-38-102-61 45-35 93-48 145-43Z"/>
  </g>

  <g stroke="#ffffff" stroke-width="26" stroke-linecap="round" stroke-linejoin="round" opacity="0.9">
    <path d="M233 513C301 477 343 462 402 432C462 401 510 354 573 321C646 283 741 274 840 289C951 306 1035 353 1114 410C1178 457 1241 484 1315 499"/>
    <path d="M1307 499C1252 559 1224 608 1184 666C1146 720 1089 764 1002 789C923 812 837 813 761 789"/>
    <path d="M761 789C673 760 593 717 515 665C444 617 361 573 282 552"/>
  </g>

  <g stroke="#f0c25f" stroke-width="14" stroke-linecap="round" stroke-linejoin="round">
    <path d="M233 513C301 477 343 462 402 432C462 401 510 354 573 321C646 283 741 274 840 289C951 306 1035 353 1114 410C1178 457 1241 484 1315 499"/>
    <path d="M1307 499C1252 559 1224 608 1184 666C1146 720 1089 764 1002 789C923 812 837 813 761 789"/>
    <path d="M761 789C673 760 593 717 515 665C444 617 361 573 282 552"/>
  </g>

  <g opacity="0.55" stroke="#9dc7df" stroke-width="7" stroke-linecap="round">
    <path d="M317 369C356 334 401 307 458 287"/>
    <path d="M585 245C676 212 776 203 876 214"/>
    <path d="M1003 255C1082 282 1152 327 1215 388"/>
    <path d="M1235 609C1185 690 1111 751 1006 790"/>
    <path d="M600 736C528 693 452 642 379 596"/>
  </g>

  <g fill="#ffffff" fill-opacity="0.7">
    <circle cx="233" cy="513" r="22"/>
    <circle cx="402" cy="432" r="18"/>
    <circle cx="672" cy="294" r="20"/>
    <circle cx="1116" cy="412" r="20"/>
    <circle cx="1296" cy="500" r="18"/>
    <circle cx="1187" cy="668" r="18"/>
  </g>
</svg>
